<svg xmlns="http://www.w3.org/2000/svg" viewBox="0 0 200 200" width="200" height="200">
  <!-- Outer circle -->
  <circle cx="100" cy="100" r="95" fill="none" stroke="#226428" stroke-width="8"/>
  
  <!-- Inner circle -->
  <circle cx="100" cy="100" r="85" fill="#f5f5f5"/>
  
  <!-- Green section (top) -->
  <path d="M 100 15 Q 155 50 155 100 L 100 100 Z" fill="#226428"/>
  
  <!-- Yellow section (middle) -->
  <path d="M 155 100 Q 155 145 100 175 L 100 100 Z" fill="#D4A574"/>
  
  <!-- Brown section (bottom) -->
  <path d="M 100 175 Q 45 145 45 100 L 100 100 Z" fill="#5C4033"/>
  
  <!-- Map outline (ECOWAS region simplified) -->
  <path d="M 100 100 Q 110 90 120 95 Q 130 100 125 115 Q 115 120 100 100" fill="none" stroke="#333" stroke-width="1" opacity="0.5"/>
  
  <!-- Text arc (top) -->
  <defs>
    <path id="topCurve" d="M 30,100 A 70,70 0 0,1 170,100" fill="none"/>
  </defs>
  <text font-size="14" font-weight="bold" fill="#226428" letter-spacing="2">
    <textPath href="#topCurve" startOffset="50%" text-anchor="middle">
      FERTILIZER AND SOIL HEALTH
    </textPath>
  </text>
  
  <!-- Text arc (bottom) -->
  <defs>
    <path id="bottomCurve" d="M 170,100 A 70,70 0 0,1 30,100" fill="none"/>
  </defs>
  <text font-size="12" font-weight="bold" fill="#226428" letter-spacing="1.5">
    <textPath href="#bottomCurve" startOffset="50%" text-anchor="middle">
      HUB FOR WEST AFRICA AND THE SAHEL
    </textPath>
  </text>
</svg>
